<mxfile host="app.diagrams.net" modified="2023-07-20T13:08:42.753Z" agent="Mozilla/5.0 (Macintosh; Intel Mac OS X 10_15_7) AppleWebKit/537.36 (KHTML, like Gecko) Chrome/114.0.0.0 Safari/537.36" etag="kfaMbbZ3jD_-fcw7qfmX" version="21.6.2" type="device">
  <diagram name="Page-1" id="kPvPxu30vTRxNWqnvYA6">
    <mxGraphModel dx="1967" dy="1910" grid="0" gridSize="10" guides="1" tooltips="1" connect="1" arrows="1" fold="1" page="0" pageScale="1" pageWidth="827" pageHeight="1169" math="0" shadow="0">
      <root>
        <mxCell id="0" />
        <mxCell id="1" parent="0" />
        <mxCell id="O0iVXHAJnSDi6u1Wn1Fp-8" value="" style="edgeStyle=none;curved=1;rounded=0;orthogonalLoop=1;jettySize=auto;html=1;fontSize=12;startSize=8;endSize=8;entryX=0.5;entryY=0;entryDx=0;entryDy=0;" edge="1" parent="1" source="O0iVXHAJnSDi6u1Wn1Fp-1" target="O0iVXHAJnSDi6u1Wn1Fp-24">
          <mxGeometry relative="1" as="geometry" />
        </mxCell>
        <mxCell id="O0iVXHAJnSDi6u1Wn1Fp-1" value="3 caractères dans la barre de recherche" style="rounded=1;whiteSpace=wrap;html=1;fontSize=16;direction=west;" vertex="1" parent="1">
          <mxGeometry x="133" y="-387" width="143" height="69" as="geometry" />
        </mxCell>
        <mxCell id="O0iVXHAJnSDi6u1Wn1Fp-20" value="" style="edgeStyle=none;curved=1;rounded=0;orthogonalLoop=1;jettySize=auto;html=1;fontSize=12;startSize=8;endSize=8;" edge="1" parent="1" source="O0iVXHAJnSDi6u1Wn1Fp-2" target="O0iVXHAJnSDi6u1Wn1Fp-5">
          <mxGeometry relative="1" as="geometry" />
        </mxCell>
        <mxCell id="O0iVXHAJnSDi6u1Wn1Fp-2" value="séléction d&#39;un tag dans l&#39;une des 3 select box" style="rounded=1;whiteSpace=wrap;html=1;fontSize=16;" vertex="1" parent="1">
          <mxGeometry x="-267" y="238" width="120" height="60" as="geometry" />
        </mxCell>
        <mxCell id="O0iVXHAJnSDi6u1Wn1Fp-10" value="" style="edgeStyle=none;curved=1;rounded=0;orthogonalLoop=1;jettySize=auto;html=1;fontSize=12;startSize=8;endSize=8;" edge="1" parent="1" source="O0iVXHAJnSDi6u1Wn1Fp-5" target="O0iVXHAJnSDi6u1Wn1Fp-9">
          <mxGeometry relative="1" as="geometry" />
        </mxCell>
        <mxCell id="O0iVXHAJnSDi6u1Wn1Fp-14" value="" style="edgeStyle=none;curved=1;rounded=0;orthogonalLoop=1;jettySize=auto;html=1;fontSize=12;startSize=8;endSize=8;" edge="1" parent="1" source="O0iVXHAJnSDi6u1Wn1Fp-5" target="O0iVXHAJnSDi6u1Wn1Fp-13">
          <mxGeometry relative="1" as="geometry" />
        </mxCell>
        <mxCell id="O0iVXHAJnSDi6u1Wn1Fp-5" value="&lt;span style=&quot;color: rgb(0, 0, 0); font-family: Helvetica; font-size: 16px; font-style: normal; font-variant-ligatures: normal; font-variant-caps: normal; font-weight: 400; letter-spacing: normal; orphans: 2; text-align: center; text-indent: 0px; text-transform: none; widows: 2; word-spacing: 0px; -webkit-text-stroke-width: 0px; background-color: rgb(255, 255, 255); text-decoration-thickness: initial; text-decoration-style: initial; text-decoration-color: initial; float: none; display: inline !important;&quot;&gt;les caractères correspondent à une occurrence&lt;br&gt;(titre, liste des ingrédients, description de la&lt;/span&gt;&lt;br style=&quot;border-color: var(--border-color); color: rgb(0, 0, 0); font-family: Helvetica; font-size: 16px; font-style: normal; font-variant-ligatures: normal; font-variant-caps: normal; font-weight: 400; letter-spacing: normal; orphans: 2; text-align: center; text-indent: 0px; text-transform: none; widows: 2; word-spacing: 0px; -webkit-text-stroke-width: 0px; background-color: rgb(255, 255, 255); text-decoration-thickness: initial; text-decoration-style: initial; text-decoration-color: initial;&quot;&gt;&lt;span style=&quot;color: rgb(0, 0, 0); font-family: Helvetica; font-size: 16px; font-style: normal; font-variant-ligatures: normal; font-variant-caps: normal; font-weight: 400; letter-spacing: normal; orphans: 2; text-align: center; text-indent: 0px; text-transform: none; widows: 2; word-spacing: 0px; -webkit-text-stroke-width: 0px; background-color: rgb(255, 255, 255); text-decoration-thickness: initial; text-decoration-style: initial; text-decoration-color: initial; float: none; display: inline !important;&quot;&gt;recette)&lt;/span&gt;" style="rhombus;whiteSpace=wrap;html=1;fontSize=16;" vertex="1" parent="1">
          <mxGeometry x="82.5" y="-42" width="244" height="234" as="geometry" />
        </mxCell>
        <mxCell id="O0iVXHAJnSDi6u1Wn1Fp-9" value="&lt;meta charset=&quot;utf-8&quot;&gt;« Aucune recette ne contient ‘XXX ’ vous pouvez chercher «&#xa;tarte aux pommes », « poisson », etc." style="rounded=1;whiteSpace=wrap;html=1;fontSize=16;" vertex="1" parent="1">
          <mxGeometry x="-312" y="23.5" width="263" height="103" as="geometry" />
        </mxCell>
        <mxCell id="O0iVXHAJnSDi6u1Wn1Fp-11" value="non" style="text;html=1;strokeColor=none;fillColor=none;align=center;verticalAlign=middle;whiteSpace=wrap;rounded=0;fontSize=16;" vertex="1" parent="1">
          <mxGeometry x="-3" y="49" width="60" height="30" as="geometry" />
        </mxCell>
        <mxCell id="O0iVXHAJnSDi6u1Wn1Fp-12" style="edgeStyle=none;curved=1;rounded=0;orthogonalLoop=1;jettySize=auto;html=1;exitX=0;exitY=0.5;exitDx=0;exitDy=0;fontSize=12;startSize=8;endSize=8;" edge="1" parent="1" source="O0iVXHAJnSDi6u1Wn1Fp-5" target="O0iVXHAJnSDi6u1Wn1Fp-5">
          <mxGeometry relative="1" as="geometry" />
        </mxCell>
        <mxCell id="O0iVXHAJnSDi6u1Wn1Fp-18" value="" style="edgeStyle=none;curved=1;rounded=0;orthogonalLoop=1;jettySize=auto;html=1;fontSize=12;startSize=8;endSize=8;" edge="1" parent="1" source="O0iVXHAJnSDi6u1Wn1Fp-13" target="O0iVXHAJnSDi6u1Wn1Fp-17">
          <mxGeometry relative="1" as="geometry" />
        </mxCell>
        <mxCell id="O0iVXHAJnSDi6u1Wn1Fp-13" value="mise à jour des recettes correspondant aux caractères" style="rounded=1;whiteSpace=wrap;html=1;fontSize=16;" vertex="1" parent="1">
          <mxGeometry x="118.5" y="260" width="172" height="92" as="geometry" />
        </mxCell>
        <mxCell id="O0iVXHAJnSDi6u1Wn1Fp-15" value="oui" style="text;html=1;strokeColor=none;fillColor=none;align=center;verticalAlign=middle;whiteSpace=wrap;rounded=0;fontSize=16;" vertex="1" parent="1">
          <mxGeometry x="197" y="208" width="60" height="30" as="geometry" />
        </mxCell>
        <mxCell id="O0iVXHAJnSDi6u1Wn1Fp-17" value="mise à jour des 3 select box" style="rounded=1;whiteSpace=wrap;html=1;fontSize=16;" vertex="1" parent="1">
          <mxGeometry x="545" y="276" width="120" height="60" as="geometry" />
        </mxCell>
        <mxCell id="O0iVXHAJnSDi6u1Wn1Fp-30" value="" style="edgeStyle=none;curved=1;rounded=0;orthogonalLoop=1;jettySize=auto;html=1;fontSize=12;startSize=8;endSize=8;" edge="1" parent="1" source="O0iVXHAJnSDi6u1Wn1Fp-24" target="O0iVXHAJnSDi6u1Wn1Fp-29">
          <mxGeometry relative="1" as="geometry" />
        </mxCell>
        <mxCell id="O0iVXHAJnSDi6u1Wn1Fp-24" value="ajouter la croix à droite dans la search bar pour effecer le champs" style="rounded=1;whiteSpace=wrap;html=1;fontSize=16;" vertex="1" parent="1">
          <mxGeometry x="92" y="-262" width="225" height="60" as="geometry" />
        </mxCell>
        <mxCell id="O0iVXHAJnSDi6u1Wn1Fp-26" value="lancer la recherche d&#39;une correspondance avec : titre, liste des ingrédients, description de la&lt;br style=&quot;border-color: var(--border-color);&quot;&gt;&lt;span style=&quot;border-color: var(--border-color);&quot;&gt;recette&lt;/span&gt;" style="rounded=1;whiteSpace=wrap;html=1;fontSize=16;" vertex="1" parent="1">
          <mxGeometry x="67.5" y="-163" width="274" height="83" as="geometry" />
        </mxCell>
        <mxCell id="O0iVXHAJnSDi6u1Wn1Fp-28" value="" style="edgeStyle=none;curved=1;rounded=0;orthogonalLoop=1;jettySize=auto;html=1;fontSize=12;startSize=8;endSize=8;" edge="1" parent="1" source="O0iVXHAJnSDi6u1Wn1Fp-27" target="O0iVXHAJnSDi6u1Wn1Fp-1">
          <mxGeometry relative="1" as="geometry" />
        </mxCell>
        <mxCell id="O0iVXHAJnSDi6u1Wn1Fp-27" value="barre de recherche vide" style="rounded=1;whiteSpace=wrap;html=1;fontSize=16;" vertex="1" parent="1">
          <mxGeometry x="144.5" y="-488" width="120" height="60" as="geometry" />
        </mxCell>
        <mxCell id="O0iVXHAJnSDi6u1Wn1Fp-29" value="appui sur la croix d&#39;effecement" style="whiteSpace=wrap;html=1;fontSize=16;rounded=1;" vertex="1" parent="1">
          <mxGeometry x="-210" y="-262" width="120" height="60" as="geometry" />
        </mxCell>
        <mxCell id="O0iVXHAJnSDi6u1Wn1Fp-33" value="" style="endArrow=classic;html=1;rounded=0;fontSize=12;startSize=8;endSize=8;curved=1;exitX=0.5;exitY=0;exitDx=0;exitDy=0;entryX=0;entryY=0.5;entryDx=0;entryDy=0;" edge="1" parent="1" source="O0iVXHAJnSDi6u1Wn1Fp-29" target="O0iVXHAJnSDi6u1Wn1Fp-27">
          <mxGeometry width="50" height="50" relative="1" as="geometry">
            <mxPoint x="172" y="4" as="sourcePoint" />
            <mxPoint x="136" y="-397" as="targetPoint" />
            <Array as="points">
              <mxPoint x="-119" y="-449" />
            </Array>
          </mxGeometry>
        </mxCell>
        <mxCell id="O0iVXHAJnSDi6u1Wn1Fp-34" value="" style="endArrow=classic;html=1;rounded=0;fontSize=12;startSize=8;endSize=8;curved=1;exitX=0.5;exitY=0;exitDx=0;exitDy=0;entryX=0.5;entryY=1;entryDx=0;entryDy=0;" edge="1" parent="1" source="O0iVXHAJnSDi6u1Wn1Fp-9" target="O0iVXHAJnSDi6u1Wn1Fp-29">
          <mxGeometry width="50" height="50" relative="1" as="geometry">
            <mxPoint x="172" y="4" as="sourcePoint" />
            <mxPoint x="222" y="-46" as="targetPoint" />
          </mxGeometry>
        </mxCell>
        <mxCell id="O0iVXHAJnSDi6u1Wn1Fp-35" value="" style="endArrow=classic;html=1;rounded=0;fontSize=12;startSize=8;endSize=8;curved=1;exitX=0.5;exitY=1;exitDx=0;exitDy=0;entryX=0.5;entryY=0;entryDx=0;entryDy=0;" edge="1" parent="1" source="O0iVXHAJnSDi6u1Wn1Fp-24" target="O0iVXHAJnSDi6u1Wn1Fp-26">
          <mxGeometry width="50" height="50" relative="1" as="geometry">
            <mxPoint x="172" y="4" as="sourcePoint" />
            <mxPoint x="222" y="-46" as="targetPoint" />
          </mxGeometry>
        </mxCell>
        <mxCell id="O0iVXHAJnSDi6u1Wn1Fp-39" value="" style="endArrow=classic;html=1;rounded=0;fontSize=12;startSize=8;endSize=8;curved=1;exitX=0.5;exitY=1;exitDx=0;exitDy=0;entryX=0.5;entryY=0;entryDx=0;entryDy=0;" edge="1" parent="1" source="O0iVXHAJnSDi6u1Wn1Fp-26" target="O0iVXHAJnSDi6u1Wn1Fp-5">
          <mxGeometry width="50" height="50" relative="1" as="geometry">
            <mxPoint x="172" y="4" as="sourcePoint" />
            <mxPoint x="222" y="-46" as="targetPoint" />
          </mxGeometry>
        </mxCell>
      </root>
    </mxGraphModel>
  </diagram>
</mxfile>
